Coordinates
version=1
nRows=22
nColumns=24
inDegrees=yes

Units are S.I. units (second, meters, Newtons, ...)
Angles are in degrees.

endheader
time	pelvis_tilt	pelvis_list	pelvis_rotation	pelvis_tx	pelvis_ty	pelvis_tz	hip_flexion_r	hip_adduction_r	hip_rotation_r	knee_angle_r	ankle_angle_r	subtalar_angle_r	mtp_angle_r	hip_flexion_l	hip_adduction_l	hip_rotation_l	knee_angle_l	ankle_angle_l	subtalar_angle_l	mtp_angle_l	lumbar_extension	lumbar_bending	lumbar_rotation
      0.88550000	     -4.83176811	      1.22047216	     -7.07136270	     -0.14610120	      0.88136329	      0.31164814	    -12.05649060	      1.98243171	      0.65003021	     -9.67250315	     21.53226278	     11.49034174	      8.68908282	     33.45835080	     -2.90459799	     -9.99318065	    -14.44942529	      6.35132866	     -3.86474863	     -1.51640610	     -5.10937814	     -0.88934788	     12.62388351
      0.88966667	     -4.89827860	      1.33526967	     -7.29362174	     -0.13970986	      0.88017963	      0.31165229	    -12.07759653	      1.72306006	      0.61334878	    -10.34923089	     21.66922710	     11.85902984	      9.03677809	     33.41788685	     -2.84727548	    -10.03237525	    -14.49765935	      6.35957476	     -3.94335837	     -1.48266456	     -4.93679416	     -1.04307541	     12.81169283
      0.89383333	     -4.97121668	      1.46350923	     -7.49460166	     -0.13330416	      0.87902648	      0.31162606	    -12.07931635	      1.45361251	      0.59311257	    -11.04571979	     21.77099864	     12.22322329	      9.58283311	     33.39818413	     -2.76352173	    -10.05071109	    -14.65744103	      6.34207874	     -4.09957465	     -1.41543851	     -4.76836277	     -1.26146210	     12.95657150
      0.89800000	     -5.02136879	      1.58792881	     -7.69048807	     -0.12687141	      0.87799141	      0.31163979	    -12.11660299	      1.20373200	      0.71599903	    -11.71943188	     21.75078782	     12.23153653	      9.71135074	     33.34581307	     -2.68618472	    -10.12237685	    -14.87669963	      6.25366049	     -4.17400640	     -1.39797140	     -4.61382516	     -1.44733968	     12.95555563
      0.90216667	     -5.13631693	      1.72522859	     -7.83893811	     -0.12048857	      0.87685637	      0.31149291	    -11.98250620	      0.93155510	      0.60417427	    -12.60117844	     21.84117645	     12.68863048	     10.17455847	     33.39349867	     -2.56389531	    -10.08889087	    -15.19963257	      6.08338406	     -4.38679846	     -1.32038208	     -4.40662274	     -1.64628207	     13.12992666
      0.90633333	     -5.18995729	      1.88092134	     -7.98935207	     -0.11400320	      0.87591892	      0.31136965	    -11.95256250	      0.63985359	      0.61308826	    -13.38219354	     21.64359458	     12.82624002	     14.79283934	     33.35106629	     -2.41338178	    -10.09217441	    -15.54553900	      5.86632884	     -4.70725260	     -0.42148372	     -4.25206967	     -1.88695477	     13.08904037
      0.91050000	     -5.28717454	      2.02797272	     -8.10057825	     -0.10753781	      0.87493024	      0.31118228	    -11.82302327	      0.37267563	      0.58331483	    -14.29159798	     21.56999999	     12.98966006	     14.87155123	     33.40210607	     -2.27168572	    -10.12644239	    -16.03569987	      5.69624550	     -4.83998384	     -0.39955014	     -4.04137408	     -2.10674376	     13.15859205
      0.91466667	     -5.37428883	      2.19690241	     -8.20223958	     -0.10103116	      0.87403624	      0.31097249	    -11.68682554	      0.08382691	      0.58544545	    -15.22567444	     21.39676471	     13.11932282	     14.98059037	     33.43175062	     -2.09472596	    -10.14672976	    -16.54528119	      5.47561732	     -5.06723712	     -0.37349221	     -3.83624858	     -2.37265884	     13.14076452
      0.91883333	     -5.41040112	      2.39484918	     -8.25389283	     -0.09448478	      0.87326788	      0.31059402	    -11.55173334	     -0.25937778	      0.39376755	    -16.26575920	     21.22074848	     13.43497403	     15.74008040	     33.39320419	     -1.82926885	    -10.06781216	    -17.03686807	      5.14170715	     -5.51488684	     -0.18484745	     -3.69781030	     -2.64421692	     13.13977372
      0.92300000	     -5.53053537	      2.53305980	     -8.29788304	     -0.08798071	      0.87242869	      0.31029325	    -11.32509147	     -0.49151786	      0.41805505	    -17.30949596	     20.88841072	     13.42058441	     15.88914174	     33.51240090	     -1.67075299	    -10.08505586	    -17.72688949	      4.96425032	     -5.69580430	     -0.15136207	     -3.45354833	     -2.85952431	     13.05088291
      0.92716667	     -5.62884499	      2.69934939	     -8.31047919	     -0.08145132	      0.87167953	      0.30988047	    -11.06800811	     -0.76694421	      0.33729961	    -18.45558087	     20.54110764	     13.50849299	     16.11508297	     33.59975658	     -1.45108689	    -10.05224483	    -18.40593226	      4.71271026	     -5.97817264	     -0.10569848	     -3.23841606	     -3.10139831	     12.95865334
      0.93133333	     -5.70751270	      2.85785222	     -8.27481512	     -0.07495061	      0.87100005	      0.30933167	    -10.77723396	     -1.04099196	      0.15574229	    -19.71375429	     20.22943657	     13.67584251	     16.60664954	     33.67911743	     -1.19610553	     -9.92745804	    -19.11135423	      4.41408692	     -6.40280581	     -0.01298587	     -3.07230948	     -3.29192872	     12.83602756
      0.93550000	     -5.73436139	      3.04864173	     -8.22480184	     -0.06832605	      0.87050622	      0.30879002	    -10.55310543	     -1.34937731	      0.01078166	    -20.91536676	     19.56274761	     13.62276744	     22.35203968	     33.68244365	     -0.90132409	     -9.85167311	    -19.80441221	      4.19476770	     -6.74366659	      1.04510477	     -2.94100076	     -3.58535556	     12.71296549
      0.93966667	     -5.80532011	      3.20761812	     -8.16127804	     -0.06178794	      0.86998778	      0.30821378	    -10.21144348	     -1.61188923	     -0.11362812	    -22.26459817	     18.99423902	     13.63213365	     22.42861814	     33.76971146	     -0.65211161	     -9.79641840	    -20.58531697	      3.99946527	     -6.97832398	      1.05762128	     -2.77410170	     -3.80929033	     12.53878464
      0.94383333	     -5.84017448	      3.39672715	     -8.06296436	     -0.05521555	      0.86958959	      0.30752506	     -9.86371082	     -1.92305842	     -0.32329780	    -23.68903449	     18.36294791	     13.71147463	     22.79020228	     33.79259667	     -0.32385269	     -9.63636754	    -21.31024363	      3.83544061	     -7.37939660	      1.09855676	     -2.65294355	     -4.07387189	     12.32934553
      0.94800000	     -5.85848322	      3.60506047	     -7.92531358	     -0.04861932	      0.86928349	      0.30676231	     -9.49968799	     -2.25859898	     -0.58609802	    -25.16594138	     17.63595128	     13.73626784	     24.14580671	     33.79557721	      0.04505091	     -9.47434203	    -22.02497584	      3.60559356	     -7.77072785	      1.21287592	     -2.54739719	     -4.37580387	     12.07890218
      0.95216667	     -5.90647448	      3.75526317	     -7.82222863	     -0.04211601	      0.86898636	      0.30610658	     -9.04647233	     -2.50724024	     -0.68583843	    -26.73536307	     16.84359478	     13.56890118	     24.31789193	     33.86169635	      0.29457515	     -9.43830910	    -22.84863108	      3.61682606	     -7.84446507	      1.22743237	     -2.42469522	     -4.58880567	     11.91113426
      0.95633333	     -5.86438159	      3.98801734	     -7.70426917	     -0.03554982	      0.86890917	      0.30534109	     -8.63698390	     -2.88836347	     -0.90512254	    -28.37012531	     15.93665280	     13.50173634	     27.37121196	     33.76855054	      0.68492955	     -9.32838146	    -23.51855266	      3.51626563	     -8.23099838	      1.34777481	     -2.41040534	     -4.92671796	     11.62564355
      0.96050000	     -5.89486036	      4.13233477	     -7.50509806	     -0.02904605	      0.86873268	      0.30449566	     -8.13325378	     -3.14238719	     -1.15287713	    -30.04920080	     14.97833182	     13.37616405	     27.46607585	     33.80296708	      0.99515204	     -9.16224098	    -24.31421702	      3.62158176	     -8.28908427	      1.35490577	     -2.31380064	     -5.13167166	     11.42792882
      0.96466667	     -5.80707700	      4.31089973	     -7.32495173	     -0.02249234	      0.86882480	      0.30367542	     -7.72517591	     -3.46033425	     -1.40469136	    -31.75260119	     13.90796809	     13.19811681	     27.51506591	     33.66446190	      1.34599762	     -9.06516106	    -25.02792834	      3.78272317	     -8.38314576	      1.36010000	     -2.35914987	     -5.41417422	     11.26563471
      0.96883333	     -5.81990793	      4.53116862	     -7.13535872	     -0.01608154	      0.86878087	      0.30276973	     -7.10123320	     -3.82919170	     -1.66780473	    -33.63153012	     12.90513453	     13.12328981	     27.79094172	     33.61702079	      1.75783749	     -8.85738965	    -25.66772538	      3.80831839	     -8.67943551	      1.35107402	     -2.31214283	     -5.72508860	     10.85467177
      0.97300000	     -5.69248833	      4.72309104	     -6.93503284	     -0.00958243	      0.86903664	      0.30189790	     -6.64682758	     -4.18414458	     -1.95613029	    -35.44389500	     11.69889022	     12.90281644	     27.85281278	     33.38683827	      2.14246258	     -8.74635139	    -26.28302218	      4.05490578	     -8.71235431	      1.35524767	     -2.42465037	     -6.00480268	     10.70664756
